<svg id="visual" viewBox="0 0 960 540" width="960" height="540" xmlns="http://www.w3.org/2000/svg" xmlns:xlink="http://www.w3.org/1999/xlink" version="1.1"><path d="M0 257L42 267L83 273L125 267L167 290L209 272L250 288L292 285L334 246L376 258L417 296L459 289L501 261L543 281L584 271L626 283L668 289L710 253L751 280L793 271L835 295L877 254L918 253L960 284L960 541L918 541L877 541L835 541L793 541L751 541L710 541L668 541L626 541L584 541L543 541L501 541L459 541L417 541L376 541L334 541L292 541L250 541L209 541L167 541L125 541L83 541L42 541L0 541Z" fill="#0050d1"></path></svg>